<?xml version="1.0" standalone="no"?>
<!DOCTYPE svg PUBLIC "-//W3C//DTD SVG 20010904//EN"
 "http://www.w3.org/TR/2001/REC-SVG-20010904/DTD/svg10.dtd">
<svg version="1.0" xmlns="http://www.w3.org/2000/svg"
 width="512.000000pt" height="512.000000pt" viewBox="0 0 512.000000 512.000000"
 preserveAspectRatio="xMidYMid meet">

<g transform="translate(0.000000,512.000000) scale(0.100000,-0.100000)"
fill="#000000" stroke="none">
<path d="M2425 4675 c-472 -594 -816 -1324 -1029 -2180 -153 -616 -258 -1297
-306 -1983 -10 -129 -9 -166 1 -178 28 -34 54 -11 204 181 437 561 775 908
1175 1209 231 174 417 286 501 301 64 11 77 -2 345 -370 307 -420 531 -753
640 -952 30 -55 50 -69 84 -58 25 8 25 10 -5 280 -82 723 -198 1278 -380 1820
-202 604 -451 1124 -770 1610 -94 142 -299 424 -319 437 -27 18 -48 1 -141
-117z m244 -395 c510 -752 865 -1668 1056 -2723 15 -82 25 -150 23 -152 -2 -3
-55 69 -116 158 -187 268 -373 519 -427 572 -87 89 -184 120 -296 96 -157 -34
-471 -234 -804 -512 -202 -169 -538 -513 -729 -746 -33 -40 -61 -72 -62 -70
-8 10 64 528 112 796 137 777 327 1397 593 1946 142 292 249 473 430 728 l76
107 23 -27 c12 -16 67 -93 121 -173z"/>
<path d="M2431 3577 c-40 -309 -77 -564 -82 -568 -5 -3 -102 -21 -214 -39
-113 -19 -201 -37 -197 -41 4 -4 88 -41 187 -84 99 -43 182 -79 184 -81 3 -2
-1 -25 -7 -52 -6 -26 -22 -94 -36 -152 l-24 -105 132 139 132 138 132 -138
c73 -75 132 -133 132 -128 0 5 -11 74 -26 153 -14 79 -24 144 -22 145 2 1 83
38 180 82 98 43 178 82 178 85 0 3 -86 21 -191 40 -164 29 -193 37 -200 54 -5
11 -47 265 -93 564 -47 299 -87 545 -89 547 -1 2 -36 -250 -76 -559z"/>
</g>
</svg>
